<svg xmlns="http://www.w3.org/2000/svg" viewBox="0 0 48 48">
  <defs>
    <linearGradient id="blueGrad" x1="0%" y1="0%" x2="100%" y2="100%">
      <stop offset="0%" style="stop-color:#60a5fa;stop-opacity:1" />
      <stop offset="100%" style="stop-color:#1d4ed8;stop-opacity:1" />
    </linearGradient>
  </defs>
  
  <!-- Outer Ring Snippets from Logo -->
  <path d="M38 20C38 12 32 6 24 6C16 6 10 12 10 20" fill="none" stroke="url(#blueGrad)" stroke-width="3" stroke-linecap="round"/>
  <path d="M8 28C8 36 14 42 22 42C30 42 36 36 36 28" fill="none" stroke="url(#blueGrad)" stroke-width="3" stroke-linecap="round"/>
  
  <!-- Car Silhouette / S Curve -->
  <path d="M10 26C10 26 12 18 20 18C28 18 34 24 34 24C34 24 36 26 36 28" fill="none" stroke="#ffffff" stroke-width="3" stroke-linecap="round"/>
  <path d="M14 34C16 38 20 40 24 40C28 40 32 36 32 32" fill="none" stroke="#ffffff" stroke-width="3" stroke-linecap="round"/>

  <!-- Signature Checkmark -->
  <path d="M16 24L20 28L32 16" fill="none" stroke="#60a5fa" stroke-width="5" stroke-linecap="round" stroke-linejoin="round"/>
  
  <!-- Arrow Head from Circle -->
  <path d="M36 22L39 25L36 28" fill="url(#blueGrad)" />
</svg>
